<mxfile host="app.diagrams.net" modified="2022-01-22T14:10:13.901Z" agent="5.0 (Macintosh; Intel Mac OS X 10_15_7) AppleWebKit/605.1.15 (KHTML, like Gecko) Version/14.1.2 Safari/605.1.15" etag="nyiAFLWRGq2f6_Vi6kcl" version="16.4.5" type="github">
  <diagram id="TswVL8Cg2-Ge0H9LCvM1" name="Page-1">
    <mxGraphModel dx="830" dy="735" grid="1" gridSize="10" guides="1" tooltips="1" connect="1" arrows="1" fold="1" page="1" pageScale="1" pageWidth="827" pageHeight="1169" math="0" shadow="0">
      <root>
        <mxCell id="0" />
        <mxCell id="1" parent="0" />
        <mxCell id="vwhSlU1NuRPGwbAEjghA-31" value="" style="rounded=0;whiteSpace=wrap;html=1;" vertex="1" parent="1">
          <mxGeometry x="10" y="80" width="890" height="620" as="geometry" />
        </mxCell>
        <mxCell id="vwhSlU1NuRPGwbAEjghA-2" value="alloc" style="rounded=1;whiteSpace=wrap;html=1;fillColor=#1ba1e2;fontColor=#ffffff;strokeColor=#006EAF;" vertex="1" parent="1">
          <mxGeometry x="60" y="120" width="120" height="60" as="geometry" />
        </mxCell>
        <mxCell id="vwhSlU1NuRPGwbAEjghA-4" value="" style="endArrow=classic;html=1;rounded=0;fillColor=#1ba1e2;strokeColor=#006EAF;" edge="1" parent="1">
          <mxGeometry width="50" height="50" relative="1" as="geometry">
            <mxPoint x="180" y="149.5" as="sourcePoint" />
            <mxPoint x="270" y="149.79999999999995" as="targetPoint" />
          </mxGeometry>
        </mxCell>
        <mxCell id="vwhSlU1NuRPGwbAEjghA-6" value="_objc_rootAlloc" style="rounded=1;whiteSpace=wrap;html=1;fillColor=#1ba1e2;fontColor=#ffffff;strokeColor=#006EAF;" vertex="1" parent="1">
          <mxGeometry x="270" y="120" width="120" height="60" as="geometry" />
        </mxCell>
        <mxCell id="vwhSlU1NuRPGwbAEjghA-7" value="" style="endArrow=classic;html=1;rounded=0;exitX=1;exitY=0.5;exitDx=0;exitDy=0;" edge="1" parent="1" source="vwhSlU1NuRPGwbAEjghA-6">
          <mxGeometry width="50" height="50" relative="1" as="geometry">
            <mxPoint x="400" y="149.5" as="sourcePoint" />
            <mxPoint x="470" y="150" as="targetPoint" />
          </mxGeometry>
        </mxCell>
        <mxCell id="vwhSlU1NuRPGwbAEjghA-9" value="callAlloc" style="rounded=1;whiteSpace=wrap;html=1;fillColor=#1ba1e2;fontColor=#ffffff;strokeColor=#006EAF;" vertex="1" parent="1">
          <mxGeometry x="470" y="120" width="120" height="60" as="geometry" />
        </mxCell>
        <mxCell id="vwhSlU1NuRPGwbAEjghA-10" value="objc_msgSend" style="rounded=1;whiteSpace=wrap;html=1;fillColor=#1ba1e2;fontColor=#ffffff;strokeColor=#006EAF;" vertex="1" parent="1">
          <mxGeometry x="660" y="120" width="120" height="60" as="geometry" />
        </mxCell>
        <mxCell id="vwhSlU1NuRPGwbAEjghA-13" value="" style="endArrow=classic;html=1;rounded=0;entryX=0;entryY=0.5;entryDx=0;entryDy=0;" edge="1" parent="1" target="vwhSlU1NuRPGwbAEjghA-10">
          <mxGeometry width="50" height="50" relative="1" as="geometry">
            <mxPoint x="590" y="149.5" as="sourcePoint" />
            <mxPoint x="650" y="149.5" as="targetPoint" />
          </mxGeometry>
        </mxCell>
        <mxCell id="vwhSlU1NuRPGwbAEjghA-14" value="" style="endArrow=classic;html=1;rounded=0;" edge="1" parent="1">
          <mxGeometry width="50" height="50" relative="1" as="geometry">
            <mxPoint x="529.5" y="180" as="sourcePoint" />
            <mxPoint x="529.5" y="290" as="targetPoint" />
          </mxGeometry>
        </mxCell>
        <mxCell id="vwhSlU1NuRPGwbAEjghA-19" style="edgeStyle=orthogonalEdgeStyle;rounded=0;orthogonalLoop=1;jettySize=auto;html=1;" edge="1" parent="1" source="vwhSlU1NuRPGwbAEjghA-15">
          <mxGeometry relative="1" as="geometry">
            <mxPoint x="530" y="420" as="targetPoint" />
          </mxGeometry>
        </mxCell>
        <mxCell id="vwhSlU1NuRPGwbAEjghA-15" value="_objc_rootAllocWithZone" style="rounded=1;whiteSpace=wrap;html=1;fillColor=#1ba1e2;fontColor=#ffffff;strokeColor=#006EAF;" vertex="1" parent="1">
          <mxGeometry x="445" y="290" width="170" height="60" as="geometry" />
        </mxCell>
        <mxCell id="vwhSlU1NuRPGwbAEjghA-26" style="edgeStyle=orthogonalEdgeStyle;rounded=0;orthogonalLoop=1;jettySize=auto;html=1;exitX=0.5;exitY=1;exitDx=0;exitDy=0;entryX=0.5;entryY=0;entryDx=0;entryDy=0;" edge="1" parent="1" source="vwhSlU1NuRPGwbAEjghA-20" target="vwhSlU1NuRPGwbAEjghA-22">
          <mxGeometry relative="1" as="geometry" />
        </mxCell>
        <mxCell id="vwhSlU1NuRPGwbAEjghA-20" value="_class_createInstanceFromZone" style="rounded=1;whiteSpace=wrap;html=1;fillColor=#1ba1e2;fontColor=#ffffff;strokeColor=#006EAF;" vertex="1" parent="1">
          <mxGeometry x="405" y="420" width="250" height="60" as="geometry" />
        </mxCell>
        <mxCell id="vwhSlU1NuRPGwbAEjghA-21" value="instalceSize" style="rounded=1;whiteSpace=wrap;html=1;fillColor=#1ba1e2;fontColor=#ffffff;strokeColor=#006EAF;" vertex="1" parent="1">
          <mxGeometry x="240" y="540" width="120" height="60" as="geometry" />
        </mxCell>
        <mxCell id="vwhSlU1NuRPGwbAEjghA-22" value="calloc" style="rounded=1;whiteSpace=wrap;html=1;fillColor=#1ba1e2;fontColor=#ffffff;strokeColor=#006EAF;" vertex="1" parent="1">
          <mxGeometry x="470" y="540" width="120" height="60" as="geometry" />
        </mxCell>
        <mxCell id="vwhSlU1NuRPGwbAEjghA-23" value="initInstanceIsa" style="rounded=1;whiteSpace=wrap;html=1;fillColor=#1ba1e2;fontColor=#ffffff;strokeColor=#006EAF;" vertex="1" parent="1">
          <mxGeometry x="690" y="540" width="120" height="60" as="geometry" />
        </mxCell>
        <mxCell id="vwhSlU1NuRPGwbAEjghA-28" value="" style="endArrow=classic;html=1;rounded=0;entryX=0.5;entryY=0;entryDx=0;entryDy=0;" edge="1" parent="1" target="vwhSlU1NuRPGwbAEjghA-21">
          <mxGeometry width="50" height="50" relative="1" as="geometry">
            <mxPoint x="530" y="480" as="sourcePoint" />
            <mxPoint x="570" y="360" as="targetPoint" />
          </mxGeometry>
        </mxCell>
        <mxCell id="vwhSlU1NuRPGwbAEjghA-29" value="" style="endArrow=classic;html=1;rounded=0;entryX=0.567;entryY=0.017;entryDx=0;entryDy=0;entryPerimeter=0;exitX=0.5;exitY=1;exitDx=0;exitDy=0;" edge="1" parent="1" source="vwhSlU1NuRPGwbAEjghA-20" target="vwhSlU1NuRPGwbAEjghA-23">
          <mxGeometry width="50" height="50" relative="1" as="geometry">
            <mxPoint x="520" y="410" as="sourcePoint" />
            <mxPoint x="570" y="360" as="targetPoint" />
          </mxGeometry>
        </mxCell>
      </root>
    </mxGraphModel>
  </diagram>
</mxfile>
